<mxfile host="app.diagrams.net" modified="2022-02-17T08:53:02.852Z" agent="5.0 (Windows NT 10.0; Win64; x64) AppleWebKit/537.36 (KHTML, like Gecko) Chrome/98.0.4758.82 Safari/537.36" etag="pWvdbH4Y2hqsXj8FVRgO" version="16.5.6" type="github">
  <diagram id="rL1HMUEE2gnVwnorkcU-" name="第 1 页">
    <mxGraphModel dx="2062" dy="1113" grid="1" gridSize="10" guides="1" tooltips="1" connect="1" arrows="1" fold="1" page="1" pageScale="1" pageWidth="827" pageHeight="1169" math="0" shadow="0">
      <root>
        <mxCell id="0" />
        <mxCell id="1" parent="0" />
        <mxCell id="Miz9G__O4XcfNqGgYx-K-1" value="&lt;font style=&quot;font-size: 24px&quot; face=&quot;Courier New&quot;&gt;应用程序&lt;/font&gt;" style="rounded=0;whiteSpace=wrap;html=1;fillColor=#bac8d3;strokeColor=#23445d;" vertex="1" parent="1">
          <mxGeometry x="199" y="110" width="411" height="60" as="geometry" />
        </mxCell>
        <mxCell id="Miz9G__O4XcfNqGgYx-K-2" value="" style="edgeStyle=orthogonalEdgeStyle;shape=flexArrow;rounded=0;orthogonalLoop=1;jettySize=auto;html=1;fontFamily=Courier New;fontSize=24;" edge="1" parent="1">
          <mxGeometry relative="1" as="geometry">
            <mxPoint x="522" y="570" as="sourcePoint" />
            <mxPoint x="522" y="500" as="targetPoint" />
            <Array as="points">
              <mxPoint x="522" y="530" />
              <mxPoint x="522" y="530" />
            </Array>
          </mxGeometry>
        </mxCell>
        <mxCell id="Miz9G__O4XcfNqGgYx-K-3" value="&lt;font face=&quot;Courier New&quot;&gt;&lt;span style=&quot;font-size: 24px&quot;&gt;网卡&lt;/span&gt;&lt;/font&gt;" style="rounded=0;whiteSpace=wrap;html=1;fillColor=#bac8d3;strokeColor=#23445d;" vertex="1" parent="1">
          <mxGeometry x="200" y="570" width="410" height="90" as="geometry" />
        </mxCell>
        <mxCell id="Miz9G__O4XcfNqGgYx-K-4" value="" style="edgeStyle=orthogonalEdgeStyle;shape=flexArrow;rounded=0;orthogonalLoop=1;jettySize=auto;html=1;fontFamily=Courier New;fontSize=24;" edge="1" parent="1" source="Miz9G__O4XcfNqGgYx-K-5" target="Miz9G__O4XcfNqGgYx-K-3">
          <mxGeometry relative="1" as="geometry">
            <Array as="points">
              <mxPoint x="300" y="540" />
              <mxPoint x="300" y="540" />
            </Array>
          </mxGeometry>
        </mxCell>
        <mxCell id="Miz9G__O4XcfNqGgYx-K-5" value="" style="rounded=0;whiteSpace=wrap;html=1;fontFamily=Courier New;fontSize=24;fillColor=#bac8d3;strokeColor=#23445d;" vertex="1" parent="1">
          <mxGeometry x="200" y="200" width="410" height="300" as="geometry" />
        </mxCell>
        <mxCell id="Miz9G__O4XcfNqGgYx-K-6" value="用户空间&lt;br&gt;buffer" style="rounded=0;whiteSpace=wrap;html=1;fontFamily=Courier New;fontSize=24;" vertex="1" parent="1">
          <mxGeometry x="294" y="210" width="239.5" height="70" as="geometry" />
        </mxCell>
        <mxCell id="Miz9G__O4XcfNqGgYx-K-7" value="内核空间&lt;br&gt;TCP缓冲区" style="rounded=0;whiteSpace=wrap;html=1;fontFamily=Courier New;fontSize=24;" vertex="1" parent="1">
          <mxGeometry x="290.75" y="370" width="239.25" height="90" as="geometry" />
        </mxCell>
        <mxCell id="Miz9G__O4XcfNqGgYx-K-8" value="内存区域" style="ellipse;shape=cloud;whiteSpace=wrap;html=1;fontFamily=Courier New;fontSize=24;" vertex="1" parent="1">
          <mxGeometry x="339.5" y="290" width="160" height="70" as="geometry" />
        </mxCell>
        <mxCell id="Miz9G__O4XcfNqGgYx-K-9" value="DMA" style="text;html=1;align=center;verticalAlign=middle;resizable=0;points=[];autosize=1;strokeColor=none;fillColor=none;fontSize=24;fontFamily=Courier New;" vertex="1" parent="1">
          <mxGeometry x="530" y="525" width="60" height="30" as="geometry" />
        </mxCell>
        <mxCell id="Miz9G__O4XcfNqGgYx-K-10" value="DMA" style="text;html=1;align=center;verticalAlign=middle;resizable=0;points=[];autosize=1;strokeColor=none;fillColor=none;fontSize=24;fontFamily=Courier New;" vertex="1" parent="1">
          <mxGeometry x="234" y="515" width="60" height="30" as="geometry" />
        </mxCell>
        <mxCell id="Miz9G__O4XcfNqGgYx-K-11" value="&lt;b&gt;CPU&lt;/b&gt;" style="rounded=0;whiteSpace=wrap;html=1;fontFamily=Courier New;fontSize=24;fillColor=#d5e8d4;strokeColor=#82b366;" vertex="1" parent="1">
          <mxGeometry x="60" y="110" width="70" height="550" as="geometry" />
        </mxCell>
        <mxCell id="Miz9G__O4XcfNqGgYx-K-12" value="&lt;b&gt;操作系统&lt;/b&gt;" style="rounded=0;whiteSpace=wrap;html=1;fontFamily=Courier New;fontSize=24;fillColor=#d5e8d4;strokeColor=#82b366;" vertex="1" parent="1">
          <mxGeometry x="660" y="110" width="70" height="550" as="geometry" />
        </mxCell>
        <mxCell id="Miz9G__O4XcfNqGgYx-K-13" value="" style="edgeStyle=orthogonalEdgeStyle;shape=flexArrow;rounded=0;orthogonalLoop=1;jettySize=auto;html=1;fontFamily=Courier New;fontSize=24;" edge="1" parent="1">
          <mxGeometry relative="1" as="geometry">
            <mxPoint x="510" y="360" as="sourcePoint" />
            <mxPoint x="510" y="290" as="targetPoint" />
            <Array as="points">
              <mxPoint x="510" y="320" />
              <mxPoint x="510" y="320" />
            </Array>
          </mxGeometry>
        </mxCell>
        <mxCell id="Miz9G__O4XcfNqGgYx-K-14" value="" style="edgeStyle=orthogonalEdgeStyle;shape=flexArrow;rounded=0;orthogonalLoop=1;jettySize=auto;html=1;fontFamily=Courier New;fontSize=24;" edge="1" parent="1">
          <mxGeometry relative="1" as="geometry">
            <Array as="points">
              <mxPoint x="320" y="330" />
              <mxPoint x="320" y="330" />
            </Array>
            <mxPoint x="320" y="290" as="sourcePoint" />
            <mxPoint x="320" y="360" as="targetPoint" />
          </mxGeometry>
        </mxCell>
      </root>
    </mxGraphModel>
  </diagram>
</mxfile>
